<svg id="account" xmlns="http://www.w3.org/2000/svg"><path d="M12 12c-1.1 0-2.042-.392-2.825-1.175C8.392 10.042 8 9.1 8 8s.392-2.042 1.175-2.825C9.958 4.392 10.9 4 12 4s2.042.392 2.825 1.175C15.608 5.958 16 6.9 16 8s-.392 2.042-1.175 2.825C14.042 11.608 13.1 12 12 12Zm-8 8v-2.8c0-.567.146-1.088.438-1.563.292-.475.68-.838 1.162-1.087a14.866 14.866 0 0 1 3.15-1.163A13.703 13.703 0 0 1 12 13c1.1 0 2.183.13 3.25.388a14.9 14.9 0 0 1 3.15 1.162c.483.25.871.613 1.163 1.088.292.475.438.996.437 1.562V20H4Z" fill="#fff"/></svg>