<svg aria-hidden="true" style="position: absolute; width: 0; height: 0; overflow: hidden;" version="1.1" xmlns="http://www.w3.org/2000/svg" xmlns:xlink="http://www.w3.org/1999/xlink">
<defs>
<symbol id="icon-account" >
<path fill="#fff" style="fill: var(--color1, #fff)" d="M2.56 2.56c-0.235 0-0.436-0.084-0.603-0.251s-0.251-0.368-0.251-0.603c0-0.235 0.084-0.436 0.251-0.603s0.368-0.251 0.603-0.251c0.235 0 0.436 0.084 0.603 0.251s0.251 0.368 0.251 0.603c0 0.235-0.084 0.436-0.251 0.603s-0.368 0.251-0.603 0.251zM0.853 4.267v-0.597c0-0.121 0.031-0.232 0.093-0.333s0.145-0.179 0.248-0.232c0.22-0.11 0.444-0.193 0.672-0.248s0.459-0.083 0.693-0.083c0.235 0 0.466 0.028 0.693 0.083s0.452 0.138 0.672 0.248c0.103 0.053 0.186 0.131 0.248 0.232s0.093 0.212 0.093 0.333v0.597h-3.413z"></path>
</symbol>
<symbol id="icon-burger" >
<path fill="#fff" style="fill: var(--color1, #fff)" d="M0.64 3.84v-0.427h3.84v0.427h-3.84zM0.64 2.773v-0.427h3.84v0.427h-3.84zM0.64 1.707v-0.427h3.84v0.427h-3.84z"></path>
</symbol>
<symbol id="icon-download" >
<path fill="#fff" style="fill: var(--color1, #fff)" d="M2.56 3.413l-1.067-1.067 0.299-0.309 0.555 0.555v-1.739h0.427v1.739l0.555-0.555 0.299 0.309-1.067 1.067zM1.28 4.267c-0.117 0-0.218-0.042-0.301-0.125s-0.125-0.184-0.125-0.301v-0.64h0.427v0.64h2.56v-0.64h0.427v0.64c0 0.117-0.042 0.218-0.125 0.301s-0.184 0.125-0.301 0.125h-2.56z"></path>
</symbol>
<symbol id="icon-sort" >
<path fill="#fff" style="fill: var(--color1, #fff)" d="M2.133 3.84v-0.427h0.853v0.427h-0.853zM1.28 2.773v-0.427h2.56v0.427h-2.56zM0.64 1.707v-0.427h3.84v0.427h-3.84z"></path>
</symbol>
</defs>
</svg>
